<svg version="1.1" id="Lager_1" xmlns="http://www.w3.org/2000/svg" xmlns:xlink="http://www.w3.org/1999/xlink" x="0px" y="0px"
	 viewBox="0 0 519.1 58.5" style="enable-background:new 0 0 519.1 58.5;" xml:space="preserve" fill="currentColor">
	<rect x="17.1" y="12.8" transform="matrix(0.7071 -0.7071 0.7071 0.7071 -21.1155 25.5216)" width="6.4" height="50.9"/>
	<rect x="23.8" y="-1.6" transform="matrix(0.7071 -0.7071 0.7071 0.7071 -11.1836 26.9995)" width="6.4" height="57.3"/>
	<rect x="35.1" y="-5.2" transform="matrix(0.7071 -0.7071 0.7071 0.7071 -3.1155 32.9774)" width="6.4" height="50.9"/>
	<rect x="49" y="10.3" transform="matrix(0.7071 -0.7071 0.7071 0.7071 7.5885 45.3193)" width="19.1" height="6.4"/>
	<rect x="40.9" y="3.6" transform="matrix(0.7071 -0.7071 0.7071 0.7071 9.0664 35.3873)" width="12.7" height="6.4"/>
	<rect x="58.9" y="21.6" transform="matrix(0.7071 -0.7071 0.7071 0.7071 1.6106 53.3873)" width="12.7" height="6.4"/>
	<polygon points="146.9,33.6 144.5,43.8 142.1,33.6 134.8,6.7 128.2,6.7 120.9,33.6 118.4,43.7 116.2,33.6 109.5,6.7 103.5,6.7 
		115.5,51.7 121.1,51.7 131.5,12.8 141.9,51.7 147.6,51.7 160.1,6.7 154.1,6.7 	"/>
	<rect x="164.2" y="19.1" width="5.8" height="32.6"/>
	<rect x="164.2" y="6.7" width="5.8" height="6.3"/>
	<rect x="176.4" y="6.7" width="5.8" height="45"/>
	<path d="M204.7,33l-6.3-1.4c-1.8-0.4-3.1-0.9-3.9-1.6c-0.8-0.7-1.2-1.6-1.2-2.7c0-2.9,2.2-4.3,6.6-4.3c4.5,0,7.1,1.9,7.7,5.6h5.8
		c-0.4-3.4-1.8-5.9-4.1-7.6c-2.3-1.7-5.4-2.6-9.2-2.6c-3.9,0-6.9,0.8-9,2.5c-2.1,1.7-3.2,4-3.2,6.9c0,4.6,3,7.6,9,8.8l6.6,1.4
		c3.4,0.7,5.1,2.3,5.1,4.7c0,1.6-0.7,2.9-2,3.8c-1.3,0.9-3.3,1.3-5.8,1.3c-2.5,0-4.5-0.5-5.8-1.5c-1.3-1-2.2-2.7-2.5-4.9h-5.6
		c0.8,7.4,5.3,11.1,13.6,11.1c4.3,0,7.6-0.9,10-2.7c2.4-1.8,3.6-4.4,3.6-7.6c0-2.4-0.8-4.4-2.3-5.8C210.4,34.9,208,33.8,204.7,33z"
		/>
	<path d="M233,18.3c-4.7,0-8.5,1.6-11.4,4.7c-2.9,3.1-4.4,7.2-4.4,12.5c0,5.1,1.5,9.2,4.4,12.4c2.8,3.2,6.6,4.7,11.3,4.7
		c4.6,0,8.3-1.6,11.3-4.9c2.9-3.2,4.4-7.4,4.4-12.5c0-5.1-1.4-9.2-4.3-12.3C241.4,19.8,237.6,18.3,233,18.3z M240.1,44.3
		c-1.8,2.3-4.2,3.4-7.3,3.4c-3,0-5.4-1.1-7.2-3.3c-1.8-2.2-2.7-5.2-2.7-8.9c0-3.8,0.9-6.8,2.6-9c1.7-2.2,4.2-3.3,7.2-3.3
		c3.1,0,5.6,1.1,7.3,3.2c1.7,2.1,2.6,5.1,2.6,8.8C242.8,39,241.9,42,240.1,44.3z"/>
	<path d="M269.6,18.3c-4.9,0-8.6,1.8-10.9,5.4v-4.6h-5.4v32.6h5.8V33.6c0-3.4,0.9-6,2.6-7.7c1.7-1.7,4-2.6,6.7-2.6
		c4.3,0,6.5,2.3,6.5,6.9v21.5h5.8V29.1c0-3.4-1-6.1-2.9-8C275.8,19.3,273,18.3,269.6,18.3z"/>
	<path d="M329.9,44.4c-2.3,2.1-5.2,3.1-8.8,3.1c-4.6,0-8.1-1.6-10.7-4.9c-2.6-3.3-3.9-7.7-3.9-13.4c0-5.6,1.3-10.1,3.9-13.3
		c2.6-3.2,6.1-4.8,10.7-4.8c3.2,0,5.9,0.8,8,2.4c2.1,1.6,3.6,3.9,4.2,6.8h6c-0.7-4.4-2.8-7.9-6.2-10.5c-3.5-2.6-7.6-3.9-12.3-3.9
		c-6.2,0-11.1,2.1-14.7,6.4c-3.7,4.3-5.6,9.9-5.6,16.9c0,7,1.8,12.7,5.5,17c3.7,4.4,8.6,6.6,14.9,6.6c5.2,0,9.5-1.5,12.8-4.6
		c3.4-3.1,5.4-7.4,6.2-12.8h-5.8C333.5,39.3,332.1,42.4,329.9,44.4z"/>
	<path d="M349.9,25.7v-6.6h-5.4v32.6h5.8V33.9c0.1-3.1,1.1-5.6,3-7.3c1.9-1.8,4-2.7,6.3-2.7c1.1,0,1.8,0,2.1,0.1v-5.7
		c-0.2,0-0.6-0.1-1.2-0.1C355.7,18.3,352.2,20.7,349.9,25.7z"/>
	<path d="M378.2,18.4c-4.8,0-8.6,1.5-11.2,4.6c-2.7,3.1-4.1,7.2-4.1,12.3c0,5.1,1.4,9.2,4.2,12.4c2.7,3.2,6.5,4.8,11.3,4.8
		c3.6,0,6.6-0.9,9.2-2.8c2.5-1.9,4.3-4.5,5.3-7.8l-5.3-0.6c-1.5,4.3-4.5,6.5-9,6.5c-3,0-5.4-0.9-7.1-2.8c-1.7-1.9-2.6-4.6-2.7-8.1
		h24.5v-2.1c0-5.1-1.3-9-4-11.9C386.4,19.8,382.8,18.4,378.2,18.4z M368.7,32.7c0.3-3.1,1.3-5.5,3-7.1c1.7-1.6,3.9-2.4,6.5-2.4
		c2.7,0,4.8,0.8,6.4,2.5c1.6,1.7,2.6,4,3,7.1H368.7z"/>
	<path d="M424.8,46.8c-0.4-0.4-0.6-1.2-0.6-2.2V28.6c0-7-4.3-10.4-12.8-10.4c-8.5,0-13,3.5-13.6,10.6h5.8c0.2-2.1,0.8-3.6,2-4.5
		c1.2-0.9,3-1.3,5.4-1.3c4.9,0,7.3,1.7,7.3,5.1v1.4c0,1.5-0.8,2.3-2.3,2.5l-8.3,1.1c-7.4,1-11.1,4.4-11.1,10.2c0,3,1,5.3,2.9,7
		c1.9,1.7,4.6,2.5,8,2.5c2.6,0,5-0.5,7-1.5c2.1-1,3.7-2.4,4.8-4.1c0.3,3.2,2.1,4.8,5.6,4.8h3.1v-4.3H427
		C426,47.5,425.2,47.2,424.8,46.8z M418.3,40.3c0,2.1-1,3.9-2.9,5.4c-1.9,1.6-4.2,2.3-6.9,2.3c-1.9,0-3.5-0.5-4.6-1.4
		c-1.1-0.9-1.7-2.2-1.7-3.9c0-3.1,2.1-5,6.3-5.6l9.7-1.5V40.3z"/>
	<rect x="449.3" y="19.1" width="5.8" height="32.6"/>
	<rect x="449.3" y="6.7" width="5.8" height="6.3"/>
	<polygon points="483,19.1 476.8,38 474.1,46.8 471.4,38 464.9,19.1 458.6,19.1 471.2,51.7 476.9,51.7 488.9,19.1 	"/>
	<path d="M519.1,34.7c0-5.1-1.3-9-4-11.9c-2.7-2.9-6.3-4.4-10.9-4.4c-4.8,0-8.6,1.5-11.2,4.6c-2.7,3.1-4.1,7.2-4.1,12.3
		c0,5.1,1.4,9.2,4.2,12.4c2.7,3.2,6.5,4.8,11.3,4.8c3.6,0,6.6-0.9,9.2-2.8c2.5-1.9,4.3-4.5,5.3-7.8l-5.3-0.6c-1.5,4.3-4.5,6.5-9,6.5
		c-3,0-5.4-0.9-7.1-2.8c-1.7-1.9-2.6-4.6-2.7-8.1h24.5V34.7z M494.7,32.7c0.3-3.1,1.3-5.5,3-7.1c1.7-1.6,3.9-2.4,6.5-2.4
		c2.7,0,4.8,0.8,6.4,2.5c1.6,1.7,2.6,4,3,7.1H494.7z"/>
	<path d="M437.9,9.2h-5.8v10h-4.9v4.5h4.9v20.9c0,2.5,0.6,4.4,1.7,5.5c1.2,1.2,3,1.7,5.5,1.7h5.9v-4.9h-4.2c-1.2,0-2.1-0.2-2.5-0.7
		s-0.7-1.3-0.7-2.5V23.6h7.5v-4.5h-7.5V9.2z"/>
</svg>
