<?xml version="1.0" encoding="UTF-8"?>
<svg id="b" data-name="Layer 2" xmlns="http://www.w3.org/2000/svg" viewBox="0 0 1180.015981 248.967172">
  <g id="c" data-name="Layer 1">
    <path d="M1179.989973,173.925907l.026008,72.715887c-42.035847.139159-70.526537-16.783675-95.409939-50.056077l-111.489607-.020408-.105822,49.485357-73.533.008119.002237-242.510121,97.231408.066703c14.110892.00968,25.950078,6.629644,36.811196,14.962394,11.349945,10.033044,21.047215,20.839484,29.885967,33.269956l36.502057,51.335054c20.864031,29.342351,46.082053,55.292221,80.079496,70.743136ZM1034.596856,133.07797l-31.394835-41.057175c-7.190082-9.49843-18.121421-14.766021-30.375383-14.097632l.009736,55.366287,61.760482-.21148Z"/>
    <path d="M787.741091,151.170106l-47.225608-.204134.003474-47.240734,117.218849.366209c6.201744,39.297947-6.29698,79.413631-34.351343,107.801935-27.774881,28.105495-67.28677,41.482064-106.839439,35.781233-54.802399-7.898814-97.448246-51.30403-105.289705-104.834633-8.230706-56.187843,22.054883-110.525018,74.431931-132.851834,39.964803-17.035836,85.819891-12.055966,121.768259,13.229391l-39.836474,51.334555c-21.46849-13.584572-48.097918-13.491942-68.907793,2.060608-19.024746,14.218409-28.5831,39.485851-21.076,64.780328,6.361137,21.433258,25.882725,39.215822,50.476569,41.70101,24.390848,2.464675,47.631676-9.34289,59.627282-31.923933Z"/>
    <polygon points="404.538739 246.038908 330.496683 246.134016 330.467962 77.775927 281.59579 77.586717 281.589791 3.517011 453.63104 3.506907 453.664216 77.561478 404.53355 77.780307 404.538739 246.038908"/>
    <path d="M108.864128,197.993783C79.165826,227.493932,43.397819,247.087982.025929,246.711423l-.025929-72.492061c7.904333-.752208,14.350835-3.354663,21.141305-6.880456,32.555982-19.382794,64.53813-56.070656,88.454968-85.631722,12.848856-15.881108,26.10302-30.144553,41.804291-43.129503C178.243956,16.615926,212.734421-1.12882,248.628359,2.742235l.009796,74.867584c-25.646091.217313-49.973104,17.582023-68.019546,34.177936-15.27233,14.572579-28.208988,30.316562-40.272966,47.661453-9.653127,13.878708-19.68879,26.468293-31.481515,38.544575Z"/>
    <polygon points="569.248121 245.864482 495.169876 246.124692 495.174787 3.487946 569.241029 3.577849 569.248121 245.864482"/>
  </g>
</svg>